<mxfile host="app.diagrams.net" modified="2023-10-15T12:33:21.192Z" agent="Mozilla/5.0 (Macintosh; Intel Mac OS X 10_15_7) AppleWebKit/537.36 (KHTML, like Gecko) Chrome/117.0.0.0 Safari/537.36" etag="6-FKl3vbC0B5DaYCBc6x" version="22.0.4" type="device">
  <diagram name="Page-1" id="OGjzRhRxXk1YIgOmLBDc">
    <mxGraphModel dx="1026" dy="625" grid="1" gridSize="10" guides="1" tooltips="1" connect="1" arrows="1" fold="1" page="1" pageScale="1" pageWidth="850" pageHeight="1100" math="0" shadow="0">
      <root>
        <mxCell id="0" />
        <mxCell id="1" parent="0" />
        <mxCell id="gvv-AP3uOSYALXjQYb6b-1" value="&lt;font style=&quot;font-size: 19px;&quot;&gt;Why did the chicken cross the road?&amp;nbsp;&lt;/font&gt;" style="text;html=1;strokeColor=none;fillColor=none;align=center;verticalAlign=middle;whiteSpace=wrap;rounded=0;" vertex="1" parent="1">
          <mxGeometry x="90" y="140" width="320" height="30" as="geometry" />
        </mxCell>
        <mxCell id="gvv-AP3uOSYALXjQYb6b-2" value="&lt;font style=&quot;font-size: 19px;&quot;&gt;To get to the other side.&lt;/font&gt;" style="text;html=1;strokeColor=none;fillColor=none;align=center;verticalAlign=middle;whiteSpace=wrap;rounded=0;" vertex="1" parent="1">
          <mxGeometry x="80" y="220" width="320" height="30" as="geometry" />
        </mxCell>
        <mxCell id="gvv-AP3uOSYALXjQYb6b-3" value="" style="rounded=0;whiteSpace=wrap;html=1;" vertex="1" parent="1">
          <mxGeometry x="260" y="140" width="60" height="30" as="geometry" />
        </mxCell>
      </root>
    </mxGraphModel>
  </diagram>
</mxfile>
